<mxfile host="www.draw.io" modified="2020-04-10T06:10:10.465Z" agent="5.0 (Macintosh; Intel Mac OS X 10_14_4) AppleWebKit/537.36 (KHTML, like Gecko) Chrome/80.0.3987.132 Safari/537.36" etag="_u9d7x2y2CvWq29_t-Z7" version="12.9.6" type="github">
  <diagram id="IqUQrAAPaYMYpukd3jrQ" name="第 1 页">
    <mxGraphModel dx="932" dy="508" grid="1" gridSize="10" guides="1" tooltips="1" connect="1" arrows="1" fold="1" page="1" pageScale="1" pageWidth="827" pageHeight="1169" math="0" shadow="0">
      <root>
        <mxCell id="0" />
        <mxCell id="1" parent="0" />
        <mxCell id="UVpkoJ77nU1aUvCVyRoN-5" value="" style="rounded=0;whiteSpace=wrap;html=1;" parent="1" vertex="1">
          <mxGeometry x="40" y="40" width="840" height="1690" as="geometry" />
        </mxCell>
        <mxCell id="Y7umVKeTitXeFBXWS2f0-9" value="" style="rounded=0;whiteSpace=wrap;html=1;" vertex="1" parent="1">
          <mxGeometry x="60" y="780" width="800" height="910" as="geometry" />
        </mxCell>
        <mxCell id="UVpkoJ77nU1aUvCVyRoN-1" style="edgeStyle=orthogonalEdgeStyle;rounded=0;orthogonalLoop=1;jettySize=auto;html=1;exitX=1;exitY=0.5;exitDx=0;exitDy=0;entryX=-0.031;entryY=0.667;entryDx=0;entryDy=0;entryPerimeter=0;endSize=10;targetPerimeterSpacing=0;fontSize=24;fontColor=#FF3333;" parent="1" source="UVpkoJ77nU1aUvCVyRoN-5" target="UVpkoJ77nU1aUvCVyRoN-42" edge="1">
          <mxGeometry relative="1" as="geometry" />
        </mxCell>
        <mxCell id="UVpkoJ77nU1aUvCVyRoN-2" value="web service接口" style="text;html=1;align=center;verticalAlign=middle;resizable=0;points=[];labelBackgroundColor=#ffffff;fontSize=12;fontColor=#000000;" parent="UVpkoJ77nU1aUvCVyRoN-1" vertex="1" connectable="0">
          <mxGeometry x="0.0523" y="-1" relative="1" as="geometry">
            <mxPoint y="-1.23" as="offset" />
          </mxGeometry>
        </mxCell>
        <mxCell id="UVpkoJ77nU1aUvCVyRoN-3" style="edgeStyle=orthogonalEdgeStyle;rounded=0;orthogonalLoop=1;jettySize=auto;html=1;exitX=1;exitY=0.25;exitDx=0;exitDy=0;entryX=-0.012;entryY=0.137;entryDx=0;entryDy=0;entryPerimeter=0;endSize=10;targetPerimeterSpacing=0;fontSize=12;fontColor=#000000;" parent="1" source="UVpkoJ77nU1aUvCVyRoN-5" target="UVpkoJ77nU1aUvCVyRoN-42" edge="1">
          <mxGeometry relative="1" as="geometry" />
        </mxCell>
        <mxCell id="UVpkoJ77nU1aUvCVyRoN-4" value="tcp实时消息" style="text;html=1;align=center;verticalAlign=middle;resizable=0;points=[];labelBackgroundColor=#ffffff;fontSize=12;fontColor=#000000;" parent="UVpkoJ77nU1aUvCVyRoN-3" vertex="1" connectable="0">
          <mxGeometry x="0.0249" relative="1" as="geometry">
            <mxPoint as="offset" />
          </mxGeometry>
        </mxCell>
        <mxCell id="UVpkoJ77nU1aUvCVyRoN-28" style="edgeStyle=orthogonalEdgeStyle;rounded=0;orthogonalLoop=1;jettySize=auto;html=1;exitX=0.5;exitY=0;exitDx=0;exitDy=0;entryX=0.5;entryY=1;entryDx=0;entryDy=0;endSize=10;targetPerimeterSpacing=0;" parent="1" source="UVpkoJ77nU1aUvCVyRoN-32" target="UVpkoJ77nU1aUvCVyRoN-37" edge="1">
          <mxGeometry relative="1" as="geometry" />
        </mxCell>
        <mxCell id="UVpkoJ77nU1aUvCVyRoN-29" value="数据回收" style="text;html=1;align=center;verticalAlign=middle;resizable=0;points=[];labelBackgroundColor=#ffffff;" parent="UVpkoJ77nU1aUvCVyRoN-28" vertex="1" connectable="0">
          <mxGeometry x="0.0154" relative="1" as="geometry">
            <mxPoint as="offset" />
          </mxGeometry>
        </mxCell>
        <mxCell id="UVpkoJ77nU1aUvCVyRoN-30" style="edgeStyle=orthogonalEdgeStyle;rounded=0;orthogonalLoop=1;jettySize=auto;html=1;exitX=0;exitY=0.5;exitDx=0;exitDy=0;entryX=0.129;entryY=0;entryDx=0;entryDy=0;entryPerimeter=0;endSize=10;targetPerimeterSpacing=0;fontSize=12;fontColor=#000000;" parent="1" source="UVpkoJ77nU1aUvCVyRoN-32" edge="1">
          <mxGeometry relative="1" as="geometry">
            <Array as="points">
              <mxPoint x="178" y="530" />
            </Array>
            <mxPoint x="178.03999999999996" y="780" as="targetPoint" />
          </mxGeometry>
        </mxCell>
        <mxCell id="UVpkoJ77nU1aUvCVyRoN-31" value="站端数据查看" style="text;html=1;align=center;verticalAlign=middle;resizable=0;points=[];labelBackgroundColor=#ffffff;fontSize=12;fontColor=#000000;" parent="UVpkoJ77nU1aUvCVyRoN-30" vertex="1" connectable="0">
          <mxGeometry x="0.1132" y="-1" relative="1" as="geometry">
            <mxPoint as="offset" />
          </mxGeometry>
        </mxCell>
        <mxCell id="Y7umVKeTitXeFBXWS2f0-15" style="edgeStyle=orthogonalEdgeStyle;rounded=0;orthogonalLoop=1;jettySize=auto;html=1;exitX=0.5;exitY=1;exitDx=0;exitDy=0;entryX=0.483;entryY=-0.004;entryDx=0;entryDy=0;entryPerimeter=0;startArrow=classic;startFill=1;endArrow=none;endFill=0;" edge="1" parent="1" source="UVpkoJ77nU1aUvCVyRoN-32" target="Y7umVKeTitXeFBXWS2f0-9">
          <mxGeometry relative="1" as="geometry" />
        </mxCell>
        <mxCell id="Y7umVKeTitXeFBXWS2f0-16" value="数据回收" style="text;html=1;align=center;verticalAlign=middle;resizable=0;points=[];labelBackgroundColor=#ffffff;" vertex="1" connectable="0" parent="Y7umVKeTitXeFBXWS2f0-15">
          <mxGeometry x="0.0242" y="2" relative="1" as="geometry">
            <mxPoint as="offset" />
          </mxGeometry>
        </mxCell>
        <mxCell id="UVpkoJ77nU1aUvCVyRoN-32" value="" style="rounded=0;whiteSpace=wrap;html=1;fillColor=#f5f5f5;strokeColor=#666666;fontColor=#333333;" parent="1" vertex="1">
          <mxGeometry x="246" y="450" width="400" height="160" as="geometry" />
        </mxCell>
        <mxCell id="UVpkoJ77nU1aUvCVyRoN-33" value="智能运维管控中心(地市级)" style="text;html=1;strokeColor=none;fillColor=none;align=center;verticalAlign=middle;whiteSpace=wrap;rounded=0;" parent="1" vertex="1">
          <mxGeometry x="245" y="450" width="151" height="20" as="geometry" />
        </mxCell>
        <mxCell id="UVpkoJ77nU1aUvCVyRoN-34" value="站端服务器" style="image;html=1;labelBackgroundColor=#ffffff;image=img/lib/clip_art/computers/Server_Tower_128x128.png;dashed=1;" parent="1" vertex="1">
          <mxGeometry x="356" y="500" width="60" height="60" as="geometry" />
        </mxCell>
        <mxCell id="UVpkoJ77nU1aUvCVyRoN-35" value="数据仓库" style="image;html=1;labelBackgroundColor=#ffffff;image=img/lib/clip_art/computers/Database_128x128.png" parent="1" vertex="1">
          <mxGeometry x="476" y="500" width="60" height="60" as="geometry" />
        </mxCell>
        <mxCell id="UVpkoJ77nU1aUvCVyRoN-36" value="站端数据查看" style="edgeStyle=orthogonalEdgeStyle;rounded=0;orthogonalLoop=1;jettySize=auto;html=1;exitX=0;exitY=0.5;exitDx=0;exitDy=0;entryX=0.043;entryY=-0.007;entryDx=0;entryDy=0;entryPerimeter=0;endSize=10;targetPerimeterSpacing=0;fontSize=12;fontColor=#000000;" parent="1" source="UVpkoJ77nU1aUvCVyRoN-37" edge="1">
          <mxGeometry relative="1" as="geometry">
            <Array as="points">
              <mxPoint x="113" y="240" />
            </Array>
            <mxPoint x="112.68000000000006" y="778.04" as="targetPoint" />
          </mxGeometry>
        </mxCell>
        <mxCell id="UVpkoJ77nU1aUvCVyRoN-37" value="" style="rounded=0;whiteSpace=wrap;html=1;fillColor=#f5f5f5;strokeColor=#666666;fontColor=#333333;" parent="1" vertex="1">
          <mxGeometry x="246" y="160" width="400" height="160" as="geometry" />
        </mxCell>
        <mxCell id="UVpkoJ77nU1aUvCVyRoN-38" value="智能运维管控中心(省级)" style="text;html=1;strokeColor=none;fillColor=none;align=center;verticalAlign=middle;whiteSpace=wrap;rounded=0;" parent="1" vertex="1">
          <mxGeometry x="245" y="160" width="151" height="20" as="geometry" />
        </mxCell>
        <mxCell id="UVpkoJ77nU1aUvCVyRoN-39" value="站端服务器" style="image;html=1;labelBackgroundColor=#ffffff;image=img/lib/clip_art/computers/Server_Tower_128x128.png;dashed=1;" parent="1" vertex="1">
          <mxGeometry x="356" y="210" width="60" height="60" as="geometry" />
        </mxCell>
        <mxCell id="UVpkoJ77nU1aUvCVyRoN-40" value="数据仓库" style="image;html=1;labelBackgroundColor=#ffffff;image=img/lib/clip_art/computers/Database_128x128.png" parent="1" vertex="1">
          <mxGeometry x="476" y="210" width="60" height="60" as="geometry" />
        </mxCell>
        <mxCell id="UVpkoJ77nU1aUvCVyRoN-41" value="易达智能运维管控系统" style="text;html=1;strokeColor=none;fillColor=none;align=center;verticalAlign=middle;whiteSpace=wrap;rounded=0;fontSize=24;fontColor=#FF3333;" parent="1" vertex="1">
          <mxGeometry x="325" y="70" width="270" height="40" as="geometry" />
        </mxCell>
        <mxCell id="UVpkoJ77nU1aUvCVyRoN-42" value="" style="rounded=0;whiteSpace=wrap;html=1;fontSize=24;fontColor=#FF3333;" parent="1" vertex="1">
          <mxGeometry x="1040" y="240" width="160" height="510" as="geometry" />
        </mxCell>
        <mxCell id="UVpkoJ77nU1aUvCVyRoN-43" value="&lt;span lang=&quot;EN-US&quot; style=&quot;color: rgb(0 , 0 , 0) ; white-space: normal ; font-size: 14pt ; font-family: &amp;#34;tim&amp;#34; , serif&quot;&gt;D5000系统&lt;/span&gt;&lt;span style=&quot;color: rgb(0 , 0 , 0) ; font-size: medium ; white-space: normal&quot;&gt;&lt;/span&gt;" style="rounded=1;whiteSpace=wrap;html=1;fontSize=24;fillColor=#f8cecc;strokeColor=#b85450;" parent="1" vertex="1">
          <mxGeometry x="1060" y="260" width="120" height="60" as="geometry" />
        </mxCell>
        <mxCell id="UVpkoJ77nU1aUvCVyRoN-44" value="&lt;span lang=&quot;EN-US&quot; style=&quot;color: rgb(0 , 0 , 0) ; white-space: normal ; font-size: 14pt ; font-family: &amp;#34;tim&amp;#34; , serif&quot;&gt;&lt;span lang=&quot;EN-US&quot; style=&quot;font-size: 14pt&quot;&gt;PMS&lt;/span&gt;&lt;span style=&quot;font-size: medium&quot;&gt;&lt;/span&gt;系统&lt;/span&gt;&lt;span style=&quot;color: rgb(0 , 0 , 0) ; font-size: medium ; white-space: normal&quot;&gt;&lt;/span&gt;" style="rounded=1;whiteSpace=wrap;html=1;fontSize=24;fillColor=#dae8fc;strokeColor=#6c8ebf;" parent="1" vertex="1">
          <mxGeometry x="1060" y="360" width="120" height="60" as="geometry" />
        </mxCell>
        <mxCell id="UVpkoJ77nU1aUvCVyRoN-45" value="&lt;span lang=&quot;EN-US&quot; style=&quot;color: rgb(0 , 0 , 0) ; white-space: normal ; font-size: 14pt ; font-family: &amp;#34;tim&amp;#34; , serif&quot;&gt;&lt;span lang=&quot;EN-US&quot; style=&quot;font-size: 14pt&quot;&gt;OMS&lt;/span&gt;&lt;span style=&quot;font-size: medium&quot;&gt;&lt;/span&gt;系统&lt;/span&gt;&lt;span style=&quot;color: rgb(0 , 0 , 0) ; font-size: medium ; white-space: normal&quot;&gt;&lt;/span&gt;" style="rounded=1;whiteSpace=wrap;html=1;fontSize=24;fillColor=#d5e8d4;strokeColor=#82b366;" parent="1" vertex="1">
          <mxGeometry x="1060" y="460" width="120" height="60" as="geometry" />
        </mxCell>
        <mxCell id="UVpkoJ77nU1aUvCVyRoN-46" value="&lt;span lang=&quot;EN-US&quot; style=&quot;color: rgb(0 , 0 , 0) ; white-space: normal ; font-size: 14pt ; font-family: &amp;#34;tim&amp;#34; , serif&quot;&gt;&lt;span lang=&quot;EN-US&quot; style=&quot;font-size: 14pt&quot;&gt;SCADA&lt;/span&gt;&lt;span style=&quot;font-size: medium&quot;&gt;&lt;/span&gt;系统&lt;/span&gt;&lt;span style=&quot;color: rgb(0 , 0 , 0) ; font-size: medium ; white-space: normal&quot;&gt;&lt;/span&gt;" style="rounded=1;whiteSpace=wrap;html=1;fontSize=24;fillColor=#ffe6cc;strokeColor=#d79b00;" parent="1" vertex="1">
          <mxGeometry x="1060" y="560" width="120" height="60" as="geometry" />
        </mxCell>
        <mxCell id="UVpkoJ77nU1aUvCVyRoN-47" value="&lt;font color=&quot;#000000&quot; face=&quot;tim, serif&quot;&gt;&lt;span style=&quot;font-size: 18.6667px&quot;&gt;...&lt;/span&gt;&lt;/font&gt;" style="rounded=1;whiteSpace=wrap;html=1;fontSize=24;fontColor=#FF3333;" parent="1" vertex="1">
          <mxGeometry x="1060" y="660" width="120" height="60" as="geometry" />
        </mxCell>
        <mxCell id="UVpkoJ77nU1aUvCVyRoN-48" value="第三方系统" style="text;html=1;strokeColor=none;fillColor=none;align=center;verticalAlign=middle;whiteSpace=wrap;rounded=0;fontSize=12;fontColor=#000000;" parent="1" vertex="1">
          <mxGeometry x="1050" y="200" width="130" height="20" as="geometry" />
        </mxCell>
        <mxCell id="BaqDyrA7Myw_ysM7uAXC-1" value="" style="rounded=0;whiteSpace=wrap;html=1;fontSize=12;dashed=1;movable=1;resizable=1;rotatable=1;deletable=1;editable=1;connectable=1;" parent="1" vertex="1">
          <mxGeometry x="244.5" y="1490" width="467" height="150" as="geometry" />
        </mxCell>
        <mxCell id="BaqDyrA7Myw_ysM7uAXC-2" value="" style="rounded=0;whiteSpace=wrap;html=1;dashed=1;movable=1;resizable=1;rotatable=1;deletable=1;editable=1;connectable=1;" parent="1" vertex="1">
          <mxGeometry x="244.5" y="1000" width="600" height="440" as="geometry" />
        </mxCell>
        <mxCell id="BaqDyrA7Myw_ysM7uAXC-3" style="edgeStyle=none;rounded=0;orthogonalLoop=1;jettySize=auto;html=1;exitX=0;exitY=0.5;exitDx=0;exitDy=0;entryX=1;entryY=0.5;entryDx=0;entryDy=0;movable=1;resizable=1;rotatable=1;deletable=1;editable=1;connectable=1;" parent="1" source="BaqDyrA7Myw_ysM7uAXC-6" target="BaqDyrA7Myw_ysM7uAXC-17" edge="1">
          <mxGeometry relative="1" as="geometry" />
        </mxCell>
        <mxCell id="BaqDyrA7Myw_ysM7uAXC-4" style="edgeStyle=none;rounded=0;orthogonalLoop=1;jettySize=auto;html=1;exitX=1;exitY=0.5;exitDx=0;exitDy=0;entryX=0;entryY=0.5;entryDx=0;entryDy=0;movable=1;resizable=1;rotatable=1;deletable=1;editable=1;connectable=1;" parent="1" source="BaqDyrA7Myw_ysM7uAXC-6" target="BaqDyrA7Myw_ysM7uAXC-16" edge="1">
          <mxGeometry relative="1" as="geometry" />
        </mxCell>
        <mxCell id="BaqDyrA7Myw_ysM7uAXC-5" style="edgeStyle=none;rounded=0;orthogonalLoop=1;jettySize=auto;html=1;exitX=0;exitY=0.5;exitDx=0;exitDy=0;entryX=1;entryY=0.5;entryDx=0;entryDy=0;startArrow=none;strokeColor=#000000;fillColor=none;startFill=0;movable=1;resizable=1;rotatable=1;deletable=1;editable=1;connectable=1;" parent="1" source="BaqDyrA7Myw_ysM7uAXC-6" target="BaqDyrA7Myw_ysM7uAXC-31" edge="1">
          <mxGeometry relative="1" as="geometry" />
        </mxCell>
        <mxCell id="BaqDyrA7Myw_ysM7uAXC-6" value="&lt;font style=&quot;font-size: 12px&quot;&gt;巡检机器人&lt;/font&gt;" style="shape=image;html=1;verticalAlign=top;verticalLabelPosition=bottom;labelBackgroundColor=#ffffff;imageAspect=0;aspect=fixed;image=https://cdn3.iconfinder.com/data/icons/technology-1-1/512/technology-machine-electronic-device-05-128.png;fontSize=18;movable=1;resizable=1;rotatable=1;deletable=1;editable=1;connectable=1;" parent="1" vertex="1">
          <mxGeometry x="481.5" y="1520" width="81" height="81" as="geometry" />
        </mxCell>
        <mxCell id="BaqDyrA7Myw_ysM7uAXC-8" style="edgeStyle=none;shape=flexArrow;rounded=0;orthogonalLoop=1;jettySize=auto;html=1;exitX=0;exitY=0.5;exitDx=0;exitDy=0;entryX=1.025;entryY=0.143;entryDx=0;entryDy=0;entryPerimeter=0;startArrow=block;movable=1;resizable=1;rotatable=1;deletable=1;editable=1;connectable=1;" parent="1" source="BaqDyrA7Myw_ysM7uAXC-10" target="BaqDyrA7Myw_ysM7uAXC-28" edge="1">
          <mxGeometry relative="1" as="geometry" />
        </mxCell>
        <mxCell id="BaqDyrA7Myw_ysM7uAXC-9" value="读/写" style="text;html=1;align=center;verticalAlign=middle;resizable=1;points=[];labelBackgroundColor=#ffffff;movable=1;rotatable=1;deletable=1;editable=1;connectable=1;" parent="BaqDyrA7Myw_ysM7uAXC-8" vertex="1" connectable="0">
          <mxGeometry x="0.0186" y="-1" relative="1" as="geometry">
            <mxPoint as="offset" />
          </mxGeometry>
        </mxCell>
        <mxCell id="Y7umVKeTitXeFBXWS2f0-6" style="edgeStyle=orthogonalEdgeStyle;rounded=0;orthogonalLoop=1;jettySize=auto;html=1;exitX=0.5;exitY=0;exitDx=0;exitDy=0;entryX=0.5;entryY=1;entryDx=0;entryDy=0;startArrow=classic;startFill=1;movable=1;resizable=1;rotatable=1;deletable=1;editable=1;connectable=1;" edge="1" parent="1" source="BaqDyrA7Myw_ysM7uAXC-10" target="BaqDyrA7Myw_ysM7uAXC-13">
          <mxGeometry relative="1" as="geometry" />
        </mxCell>
        <mxCell id="BaqDyrA7Myw_ysM7uAXC-10" value="JAVA&lt;br&gt;后端接口服务" style="rounded=0;whiteSpace=wrap;html=1;fontSize=12;fillColor=#e1d5e7;strokeColor=#9673a6;movable=1;resizable=1;rotatable=1;deletable=1;editable=1;connectable=1;" parent="1" vertex="1">
          <mxGeometry x="491" y="1090" width="120" height="60" as="geometry" />
        </mxCell>
        <mxCell id="BaqDyrA7Myw_ysM7uAXC-13" value="前端界面展示" style="rounded=0;whiteSpace=wrap;html=1;fontSize=12;fillColor=#f8cecc;strokeColor=#b85450;movable=1;resizable=1;rotatable=1;deletable=1;editable=1;connectable=1;" parent="1" vertex="1">
          <mxGeometry x="491" y="850" width="120" height="60" as="geometry" />
        </mxCell>
        <mxCell id="BaqDyrA7Myw_ysM7uAXC-14" style="edgeStyle=none;rounded=0;orthogonalLoop=1;jettySize=auto;html=1;exitX=0.5;exitY=0;exitDx=0;exitDy=0;startArrow=classic;startFill=1;movable=1;resizable=1;rotatable=1;deletable=1;editable=1;connectable=1;" parent="1" source="BaqDyrA7Myw_ysM7uAXC-16" target="BaqDyrA7Myw_ysM7uAXC-20" edge="1">
          <mxGeometry relative="1" as="geometry" />
        </mxCell>
        <mxCell id="BaqDyrA7Myw_ysM7uAXC-15" value="消息订阅/发布" style="text;html=1;align=center;verticalAlign=middle;resizable=1;points=[];labelBackgroundColor=#ffffff;movable=1;rotatable=1;deletable=1;editable=1;connectable=1;" parent="BaqDyrA7Myw_ysM7uAXC-14" vertex="1" connectable="0">
          <mxGeometry x="0.1571" relative="1" as="geometry">
            <mxPoint as="offset" />
          </mxGeometry>
        </mxCell>
        <mxCell id="BaqDyrA7Myw_ysM7uAXC-16" value="Ros服务" style="rounded=0;whiteSpace=wrap;html=1;movable=1;resizable=1;rotatable=1;deletable=1;editable=1;connectable=1;" parent="1" vertex="1">
          <mxGeometry x="611" y="1540.5" width="80" height="40" as="geometry" />
        </mxCell>
        <mxCell id="Y7umVKeTitXeFBXWS2f0-2" style="edgeStyle=orthogonalEdgeStyle;rounded=0;orthogonalLoop=1;jettySize=auto;html=1;exitX=0;exitY=0.5;exitDx=0;exitDy=0;startArrow=classic;startFill=1;movable=1;resizable=1;rotatable=1;deletable=1;editable=1;connectable=1;" edge="1" parent="1" source="BaqDyrA7Myw_ysM7uAXC-17" target="Y7umVKeTitXeFBXWS2f0-1">
          <mxGeometry relative="1" as="geometry" />
        </mxCell>
        <mxCell id="Y7umVKeTitXeFBXWS2f0-3" value="订阅/发布" style="text;html=1;align=center;verticalAlign=middle;resizable=1;points=[];labelBackgroundColor=#ffffff;movable=1;rotatable=1;deletable=1;editable=1;connectable=1;" vertex="1" connectable="0" parent="Y7umVKeTitXeFBXWS2f0-2">
          <mxGeometry x="0.2832" relative="1" as="geometry">
            <mxPoint as="offset" />
          </mxGeometry>
        </mxCell>
        <mxCell id="BaqDyrA7Myw_ysM7uAXC-17" value="ROS服务" style="rounded=0;whiteSpace=wrap;html=1;movable=1;resizable=1;rotatable=1;deletable=1;editable=1;connectable=1;" parent="1" vertex="1">
          <mxGeometry x="331.5" y="1579" width="90" height="40" as="geometry" />
        </mxCell>
        <mxCell id="BaqDyrA7Myw_ysM7uAXC-18" style="rounded=0;orthogonalLoop=1;jettySize=auto;html=1;exitX=0.002;exitY=0.596;exitDx=0;exitDy=0;entryX=1.008;entryY=0.685;entryDx=0;entryDy=0;entryPerimeter=0;strokeColor=#000000;startArrow=block;shape=flexArrow;fillColor=none;exitPerimeter=0;movable=1;resizable=1;rotatable=1;deletable=1;editable=1;connectable=1;" parent="1" source="BaqDyrA7Myw_ysM7uAXC-20" target="BaqDyrA7Myw_ysM7uAXC-28" edge="1">
          <mxGeometry relative="1" as="geometry">
            <mxPoint x="491.5" y="1254.29" as="sourcePoint" />
            <mxPoint x="381.5" y="1261.71" as="targetPoint" />
          </mxGeometry>
        </mxCell>
        <mxCell id="BaqDyrA7Myw_ysM7uAXC-19" value="读/写" style="text;html=1;align=center;verticalAlign=middle;resizable=1;points=[];labelBackgroundColor=#ffffff;movable=1;rotatable=1;deletable=1;editable=1;connectable=1;" parent="BaqDyrA7Myw_ysM7uAXC-18" vertex="1" connectable="0">
          <mxGeometry x="-0.0094" y="-3" relative="1" as="geometry">
            <mxPoint as="offset" />
          </mxGeometry>
        </mxCell>
        <mxCell id="BaqDyrA7Myw_ysM7uAXC-20" value="" style="rounded=0;whiteSpace=wrap;html=1;movable=1;resizable=1;rotatable=1;deletable=1;editable=1;connectable=1;" parent="1" vertex="1">
          <mxGeometry x="491.5" y="1170" width="320" height="240" as="geometry" />
        </mxCell>
        <mxCell id="BaqDyrA7Myw_ysM7uAXC-21" value="实时消息处理服务" style="rounded=0;whiteSpace=wrap;html=1;fontSize=12;fillColor=#ffe6cc;strokeColor=#d79b00;movable=1;resizable=1;rotatable=1;deletable=1;editable=1;connectable=1;" parent="1" vertex="1">
          <mxGeometry x="661.5" y="1211" width="130" height="48.77" as="geometry" />
        </mxCell>
        <mxCell id="BaqDyrA7Myw_ysM7uAXC-22" value="路径规划服务" style="rounded=0;whiteSpace=wrap;html=1;fontSize=12;fillColor=#f8cecc;strokeColor=#b85450;movable=1;resizable=1;rotatable=1;deletable=1;editable=1;connectable=1;" parent="1" vertex="1">
          <mxGeometry x="661.5" y="1279" width="130" height="50" as="geometry" />
        </mxCell>
        <mxCell id="BaqDyrA7Myw_ysM7uAXC-23" value="着色服务" style="rounded=0;whiteSpace=wrap;html=1;fontSize=12;fillColor=#d5e8d4;strokeColor=#82b366;movable=1;resizable=1;rotatable=1;deletable=1;editable=1;connectable=1;" parent="1" vertex="1">
          <mxGeometry x="511.5" y="1211" width="130" height="50.77" as="geometry" />
        </mxCell>
        <mxCell id="BaqDyrA7Myw_ysM7uAXC-24" value="任务调度服务" style="rounded=0;whiteSpace=wrap;html=1;fontSize=12;fillColor=#f5f5f5;strokeColor=#666666;fontColor=#333333;movable=1;resizable=1;rotatable=1;deletable=1;editable=1;connectable=1;" parent="1" vertex="1">
          <mxGeometry x="511.5" y="1279" width="130" height="50.77" as="geometry" />
        </mxCell>
        <mxCell id="BaqDyrA7Myw_ysM7uAXC-28" value="" style="rounded=0;whiteSpace=wrap;html=1;movable=1;resizable=1;rotatable=1;deletable=1;editable=1;connectable=1;" parent="1" vertex="1">
          <mxGeometry x="261.5" y="1140" width="120" height="270" as="geometry" />
        </mxCell>
        <mxCell id="BaqDyrA7Myw_ysM7uAXC-29" value="mysql数据库" style="shape=cylinder;whiteSpace=wrap;html=1;boundedLbl=1;backgroundOutline=1;fontSize=12;fillColor=#fff2cc;strokeColor=#d6b656;movable=1;resizable=1;rotatable=1;deletable=1;editable=1;connectable=1;" parent="1" vertex="1">
          <mxGeometry x="291.5" y="1200" width="60" height="80" as="geometry" />
        </mxCell>
        <mxCell id="BaqDyrA7Myw_ysM7uAXC-30" value="nosql数据库" style="shape=cylinder;whiteSpace=wrap;html=1;boundedLbl=1;backgroundOutline=1;fontSize=12;fillColor=#d5e8d4;strokeColor=#82b366;movable=1;resizable=1;rotatable=1;deletable=1;editable=1;connectable=1;" parent="1" vertex="1">
          <mxGeometry x="291.5" y="1310" width="60" height="80" as="geometry" />
        </mxCell>
        <mxCell id="BaqDyrA7Myw_ysM7uAXC-31" value="RTSP视频流" style="rounded=0;whiteSpace=wrap;html=1;movable=1;resizable=1;rotatable=1;deletable=1;editable=1;connectable=1;" parent="1" vertex="1">
          <mxGeometry x="331.5" y="1520" width="90" height="40" as="geometry" />
        </mxCell>
        <mxCell id="BaqDyrA7Myw_ysM7uAXC-32" style="edgeStyle=orthogonalEdgeStyle;rounded=0;orthogonalLoop=1;jettySize=auto;html=1;exitX=0.25;exitY=0;exitDx=0;exitDy=0;entryX=0;entryY=0.5;entryDx=0;entryDy=0;startArrow=none;startFill=0;strokeColor=#000000;fillColor=none;movable=1;resizable=1;rotatable=1;deletable=1;editable=1;connectable=1;" parent="1" source="BaqDyrA7Myw_ysM7uAXC-34" target="BaqDyrA7Myw_ysM7uAXC-13" edge="1">
          <mxGeometry relative="1" as="geometry" />
        </mxCell>
        <mxCell id="BaqDyrA7Myw_ysM7uAXC-33" value="拉流" style="edgeStyle=orthogonalEdgeStyle;rounded=0;orthogonalLoop=1;jettySize=auto;html=1;exitX=0;exitY=0.5;exitDx=0;exitDy=0;entryX=0;entryY=0.5;entryDx=0;entryDy=0;startArrow=none;startFill=0;strokeColor=#000000;fillColor=none;movable=1;resizable=1;rotatable=1;deletable=1;editable=1;connectable=1;" parent="1" source="BaqDyrA7Myw_ysM7uAXC-34" target="BaqDyrA7Myw_ysM7uAXC-31" edge="1">
          <mxGeometry relative="1" as="geometry">
            <Array as="points">
              <mxPoint x="211.5" y="1080" />
              <mxPoint x="211.5" y="1540" />
            </Array>
          </mxGeometry>
        </mxCell>
        <mxCell id="BaqDyrA7Myw_ysM7uAXC-34" value="RTSP转WebRTC服务" style="rounded=0;whiteSpace=wrap;html=1;fillColor=#dae8fc;strokeColor=#6c8ebf;movable=1;resizable=1;rotatable=1;deletable=1;editable=1;connectable=1;" parent="1" vertex="1">
          <mxGeometry x="261.5" y="1050" width="120" height="60" as="geometry" />
        </mxCell>
        <mxCell id="BaqDyrA7Myw_ysM7uAXC-35" value="电站摄像头报警检测服务" style="rounded=0;whiteSpace=wrap;html=1;fontSize=12;fillColor=#d0cee2;strokeColor=#56517e;movable=1;resizable=1;rotatable=1;deletable=1;editable=1;connectable=1;" parent="1" vertex="1">
          <mxGeometry x="511.5" y="1343" width="280" height="50" as="geometry" />
        </mxCell>
        <mxCell id="BaqDyrA7Myw_ysM7uAXC-36" style="edgeStyle=orthogonalEdgeStyle;rounded=0;orthogonalLoop=1;jettySize=auto;html=1;exitX=0.5;exitY=0;exitDx=0;exitDy=0;entryX=0.922;entryY=1;entryDx=0;entryDy=0;entryPerimeter=0;movable=1;resizable=1;rotatable=1;deletable=1;editable=1;connectable=1;" parent="1" source="BaqDyrA7Myw_ysM7uAXC-38" target="BaqDyrA7Myw_ysM7uAXC-20" edge="1">
          <mxGeometry relative="1" as="geometry" />
        </mxCell>
        <mxCell id="BaqDyrA7Myw_ysM7uAXC-37" value="rtsp视频拉流" style="text;html=1;align=center;verticalAlign=middle;resizable=1;points=[];labelBackgroundColor=#ffffff;movable=1;rotatable=1;deletable=1;editable=1;connectable=1;" parent="BaqDyrA7Myw_ysM7uAXC-36" vertex="1" connectable="0">
          <mxGeometry x="-0.08" relative="1" as="geometry">
            <mxPoint y="9" as="offset" />
          </mxGeometry>
        </mxCell>
        <mxCell id="BaqDyrA7Myw_ysM7uAXC-38" value="" style="rounded=0;whiteSpace=wrap;html=1;fontSize=12;dashed=1;movable=1;resizable=1;rotatable=1;deletable=1;editable=1;connectable=1;" parent="1" vertex="1">
          <mxGeometry x="731.5" y="1490" width="110" height="150" as="geometry" />
        </mxCell>
        <mxCell id="BaqDyrA7Myw_ysM7uAXC-39" value="可见光摄像头" style="image;html=1;labelBackgroundColor=#ffffff;image=img/lib/clip_art/networking/Ip_Camera_128x128.png;movable=1;resizable=1;rotatable=1;deletable=1;editable=1;connectable=1;" parent="1" vertex="1">
          <mxGeometry x="762.5" y="1519" width="28" height="28" as="geometry" />
        </mxCell>
        <mxCell id="BaqDyrA7Myw_ysM7uAXC-40" value="红外摄像头" style="points=[];aspect=fixed;html=1;align=center;shadow=0;dashed=0;image;image=img/lib/allied_telesis/security/POE_DVS_Camera.svg;movable=1;resizable=1;rotatable=1;deletable=1;editable=1;connectable=1;" parent="1" vertex="1">
          <mxGeometry x="757.47" y="1579" width="38.06" height="30" as="geometry" />
        </mxCell>
        <mxCell id="BaqDyrA7Myw_ysM7uAXC-41" value="机器人端" style="text;html=1;strokeColor=#b46504;fillColor=#fad7ac;align=center;verticalAlign=middle;whiteSpace=wrap;rounded=0;movable=1;resizable=1;rotatable=1;deletable=1;editable=1;connectable=1;" parent="1" vertex="1">
          <mxGeometry x="244.5" y="1490" width="67" height="20" as="geometry" />
        </mxCell>
        <mxCell id="BaqDyrA7Myw_ysM7uAXC-42" value="电厂摄像头" style="text;html=1;strokeColor=#b46504;fillColor=#fad7ac;align=center;verticalAlign=middle;whiteSpace=wrap;rounded=0;movable=1;resizable=1;rotatable=1;deletable=1;editable=1;connectable=1;" parent="1" vertex="1">
          <mxGeometry x="731.53" y="1490" width="67" height="20" as="geometry" />
        </mxCell>
        <mxCell id="BaqDyrA7Myw_ysM7uAXC-43" value="数据仓库" style="text;html=1;strokeColor=#b46504;fillColor=#fad7ac;align=center;verticalAlign=middle;whiteSpace=wrap;rounded=0;movable=1;resizable=1;rotatable=1;deletable=1;editable=1;connectable=1;" parent="1" vertex="1">
          <mxGeometry x="261.5" y="1140" width="60" height="20" as="geometry" />
        </mxCell>
        <mxCell id="BaqDyrA7Myw_ysM7uAXC-44" value="核心业务层" style="text;html=1;strokeColor=#b46504;fillColor=#fad7ac;align=center;verticalAlign=middle;whiteSpace=wrap;rounded=0;movable=1;resizable=1;rotatable=1;deletable=1;editable=1;connectable=1;" parent="1" vertex="1">
          <mxGeometry x="491.5" y="1170" width="70" height="20" as="geometry" />
        </mxCell>
        <mxCell id="BaqDyrA7Myw_ysM7uAXC-45" value="站端服务器" style="text;html=1;strokeColor=#b46504;fillColor=#fad7ac;align=center;verticalAlign=middle;whiteSpace=wrap;rounded=0;movable=1;resizable=1;rotatable=1;deletable=1;editable=1;connectable=1;" parent="1" vertex="1">
          <mxGeometry x="244.5" y="1000" width="67" height="20" as="geometry" />
        </mxCell>
        <mxCell id="Y7umVKeTitXeFBXWS2f0-4" style="edgeStyle=orthogonalEdgeStyle;rounded=0;orthogonalLoop=1;jettySize=auto;html=1;exitX=0.5;exitY=0;exitDx=0;exitDy=0;entryX=0;entryY=0.5;entryDx=0;entryDy=0;startArrow=classic;startFill=1;movable=1;resizable=1;rotatable=1;deletable=1;editable=1;connectable=1;" edge="1" parent="1" source="Y7umVKeTitXeFBXWS2f0-1" target="BaqDyrA7Myw_ysM7uAXC-13">
          <mxGeometry relative="1" as="geometry" />
        </mxCell>
        <mxCell id="Y7umVKeTitXeFBXWS2f0-5" value="websocket消息传输&lt;br&gt;双向" style="text;html=1;align=center;verticalAlign=middle;resizable=1;points=[];labelBackgroundColor=#ffffff;movable=1;rotatable=1;deletable=1;editable=1;connectable=1;" vertex="1" connectable="0" parent="Y7umVKeTitXeFBXWS2f0-4">
          <mxGeometry x="-0.2322" y="-1" relative="1" as="geometry">
            <mxPoint as="offset" />
          </mxGeometry>
        </mxCell>
        <mxCell id="Y7umVKeTitXeFBXWS2f0-1" value="ROS转WEBSOCKET服务" style="rounded=0;whiteSpace=wrap;html=1;fillColor=#ffe6cc;strokeColor=#d79b00;movable=1;resizable=1;rotatable=1;deletable=1;editable=1;connectable=1;" vertex="1" parent="1">
          <mxGeometry x="75.5" y="1230" width="120" height="60" as="geometry" />
        </mxCell>
        <mxCell id="Y7umVKeTitXeFBXWS2f0-10" value="变电站端" style="text;html=1;strokeColor=none;fillColor=none;align=center;verticalAlign=middle;whiteSpace=wrap;rounded=0;" vertex="1" parent="1">
          <mxGeometry x="50" y="790" width="80" height="20" as="geometry" />
        </mxCell>
      </root>
    </mxGraphModel>
  </diagram>
</mxfile>
